<svg viewBox="0 0 34 32" fill="none" xmlns="http://www.w3.org/2000/svg">
<path d="M15.7013 1.46368C16.1162 0.644854 16.3326 0.217605 16.6032 0.0930011C16.7263 0.0316711 16.8621 0 17 0C17.1379 0 17.2737 0.0316711 17.3968 0.0930011C17.6674 0.217605 17.8838 0.644854 18.2987 1.46368L22.2313 9.34922C22.3024 9.51741 22.3999 9.67359 22.52 9.81205C22.5932 9.90197 22.6854 9.9751 22.7904 10.0259C22.9648 10.0864 23.147 10.1224 23.3316 10.1328L32.1526 11.4144C33.0725 11.539 33.5416 11.6101 33.758 11.8237C33.8485 11.9213 33.9164 12.0371 33.9569 12.1632C33.9974 12.2892 34.0096 12.4223 33.9925 12.5534C33.9565 12.8738 33.6136 13.1942 32.9462 13.835L26.5606 19.9765C26.4235 20.0909 26.3021 20.2225 26.1997 20.3681C26.1475 20.4689 26.1111 20.5768 26.0916 20.6884C26.0884 20.8679 26.1064 21.0472 26.1455 21.2225L27.6609 29.8912C27.8052 30.8168 27.8953 31.2621 27.751 31.5291C27.6868 31.6474 27.597 31.7498 27.4879 31.8298C27.3787 31.9098 27.253 31.9654 27.1197 31.9919C26.813 32.0453 26.3982 31.8316 25.5684 31.4044L17.6674 27.3102C17.5174 27.2099 17.3533 27.1322 17.1803 27.079C17.0608 27.0611 16.9392 27.0611 16.8197 27.079C16.6467 27.1322 16.4826 27.2099 16.3326 27.3102L8.43161 31.4044C7.60183 31.8316 7.18697 32.0453 6.88031 31.9919C6.74704 31.9654 6.62128 31.9098 6.51214 31.8298C6.403 31.7498 6.31323 31.6474 6.249 31.5291C6.10469 31.2621 6.19475 30.8168 6.33906 29.8912L7.85447 21.2225C7.8936 21.0472 7.9116 20.8679 7.90842 20.6884C7.88889 20.5768 7.85251 20.4689 7.8003 20.3681C7.69793 20.2225 7.57651 20.0909 7.4394 19.9765L1.05384 13.835C0.386413 13.1942 0.0435362 12.8738 0.00745884 12.5534C-0.00955895 12.4223 0.00263112 12.2892 0.0431311 12.1632C0.0836311 12.0371 0.151476 11.9213 0.241971 11.8237C0.458435 11.6101 0.927468 11.539 1.84744 11.4144L10.6684 10.1328C10.853 10.1224 11.0352 10.0864 11.2096 10.0259C11.3146 9.9751 11.4068 9.90197 11.4801 9.81205C11.6001 9.67359 11.6976 9.51741 11.7687 9.34922L15.7013 1.46368Z" stroke="#AEABA7" stroke-width="1" fill="currentColor"/>
</svg>
