<svg viewBox="0 0 36 34" fill="none" xmlns="http://www.w3.org/2000/svg">
<path d="M16.7013 2.46368C17.1162 1.64485 17.3326 1.21761 17.6032 1.093C17.7263 1.03167 17.8621 1 18 1C18.1379 1 18.2737 1.03167 18.3968 1.093C18.6674 1.21761 18.8838 1.64485 19.2987 2.46368L23.2313 10.3492C23.3024 10.5174 23.3999 10.6736 23.52 10.812C23.5932 10.902 23.6854 10.9751 23.7904 11.0259C23.9648 11.0864 24.147 11.1224 24.3316 11.1328L33.1526 12.4144C34.0725 12.539 34.5416 12.6101 34.758 12.8237C34.8485 12.9213 34.9164 13.0371 34.9569 13.1632C34.9974 13.2892 35.0096 13.4223 34.9925 13.5534C34.9565 13.8738 34.6136 14.1942 33.9462 14.835L27.5606 20.9765C27.4235 21.0909 27.3021 21.2226 27.1997 21.3681C27.1475 21.4689 27.1111 21.5768 27.0916 21.6884C27.0884 21.8679 27.1064 22.0472 27.1455 22.2225L28.6609 30.8912C28.8052 31.8168 28.8953 32.2621 28.751 32.5291C28.6868 32.6474 28.597 32.7498 28.4879 32.8298C28.3787 32.9098 28.253 32.9654 28.1197 32.9919C27.813 33.0453 27.3982 32.8316 26.5684 32.4044L18.6674 28.3102C18.5174 28.2099 18.3533 28.1322 18.1803 28.079C18.0608 28.0611 17.9392 28.0611 17.8197 28.079C17.6467 28.1322 17.4826 28.2099 17.3326 28.3102L9.43161 32.4044C8.60183 32.8316 8.18697 33.0453 7.88031 32.9919C7.74704 32.9654 7.62128 32.9098 7.51214 32.8298C7.403 32.7498 7.31323 32.6474 7.249 32.5291C7.10469 32.2621 7.19475 31.8168 7.33906 30.8912L8.85447 22.2225C8.8936 22.0472 8.9116 21.8679 8.90842 21.6884C8.88889 21.5768 8.85251 21.4689 8.8003 21.3681C8.69793 21.2226 8.57651 21.0909 8.4394 20.9765L2.05384 14.835C1.38641 14.1942 1.04354 13.8738 1.00746 13.5534C0.990441 13.4223 1.00263 13.2892 1.04313 13.1632C1.08363 13.0371 1.15148 12.9213 1.24197 12.8237C1.45844 12.6101 1.92747 12.539 2.84744 12.4144L11.6684 11.1328C11.853 11.1224 12.0352 11.0864 12.2096 11.0259C12.3146 10.9751 12.4068 10.902 12.4801 10.812C12.6001 10.6736 12.6976 10.5174 12.7687 10.3492L16.7013 2.46368Z" stroke="#AEABA7" stroke-width="2" stroke-linecap="round" stroke-linejoin="round"/>
</svg>
