<svg width="21" height="20" viewBox="0 0 21 20" fill="none" xmlns="http://www.w3.org/2000/svg">
<path d="M9.70421 1.82227C9.93421 1.36227 10.0542 1.12225 10.2042 1.05225C10.2724 1.01779 10.3478 1 10.4242 1C10.5006 1 10.5759 1.01779 10.6441 1.05225C10.7941 1.12225 10.9142 1.36227 11.1441 1.82227L13.3242 6.2522C13.3636 6.34668 13.4177 6.43442 13.4842 6.51221C13.5248 6.56272 13.5759 6.6038 13.6341 6.63232C13.7308 6.66632 13.8319 6.68657 13.9342 6.69238L18.8242 7.41235C19.3342 7.48235 19.5942 7.52233 19.7142 7.64233C19.7644 7.69712 19.802 7.7622 19.8244 7.83301C19.8469 7.90382 19.8537 7.97856 19.8442 8.05225C19.8242 8.23225 19.6341 8.41222 19.2641 8.77222L15.7242 12.2224C15.6482 12.2867 15.5809 12.3606 15.5242 12.4424C15.4952 12.499 15.475 12.5596 15.4642 12.6223C15.4625 12.7231 15.4724 12.8239 15.4941 12.9224L16.3342 17.7922C16.4142 18.3122 16.4641 18.5624 16.3841 18.7124C16.3485 18.7788 16.2988 18.8364 16.2383 18.8813C16.1778 18.9263 16.108 18.9575 16.0342 18.9724C15.8642 19.0024 15.6342 18.8823 15.1742 18.6423L10.7942 16.3423C10.711 16.286 10.62 16.2423 10.5242 16.2124C10.4579 16.2024 10.3905 16.2024 10.3242 16.2124C10.2283 16.2423 10.1373 16.286 10.0542 16.3423L5.67418 18.6423C5.21418 18.8823 4.98419 19.0024 4.81419 18.9724C4.74031 18.9575 4.67059 18.9263 4.61009 18.8813C4.54959 18.8364 4.49982 18.7788 4.46422 18.7124C4.38422 18.5624 4.43414 18.3122 4.51414 17.7922L5.35423 12.9224C5.37592 12.8239 5.3859 12.7231 5.38414 12.6223C5.37331 12.5596 5.35315 12.499 5.3242 12.4424C5.26745 12.3606 5.20014 12.2867 5.12413 12.2224L1.58421 8.77222C1.21421 8.41222 1.02413 8.23225 1.00413 8.05225C0.994701 7.97856 1.00146 7.90382 1.02391 7.83301C1.04636 7.7622 1.08397 7.69712 1.13414 7.64233C1.25414 7.52233 1.51415 7.48235 2.02415 7.41235L6.91417 6.69238C7.01649 6.68657 7.11753 6.66632 7.21422 6.63232C7.27241 6.6038 7.32352 6.56272 7.36412 6.51221C7.4307 6.43442 7.48472 6.34668 7.52415 6.2522L9.70421 1.82227Z" fill="#42A5FF" stroke="#42A5FF" stroke-width="2" stroke-linecap="round" stroke-linejoin="round"/>
</svg>
